<svg width="423" height="423" viewBox="0 0 423 423" fill="none" xmlns="http://www.w3.org/2000/svg">
<rect width="423" height="423" fill="white"/>
<path d="M142 228V188.939M142 188.939V168.908H154.755M142 188.939H151.184M159.857 168.908V227.5H173.5M237.408 228V203.462M237.408 203.462V168.908C243.361 166.571 254.857 167.306 253.224 188.939C252.912 191.908 251.333 196.696 247.523 199.956M237.408 203.462C241.829 203.462 245.12 202.013 247.523 199.956M247.523 199.956L259.857 228M265.469 228L267.307 215.481M292 228L288.865 215.481M288.865 215.481L277.204 168.908L267.307 215.481M288.865 215.481H267.307" stroke="black"/>
<path d="M226.5 198C226.5 214.392 215.665 227.5 202.5 227.5C189.335 227.5 178.5 214.392 178.5 198C178.5 181.608 189.335 168.5 202.5 168.5C215.665 168.5 226.5 181.608 226.5 198Z" stroke="#FA0202"/>
<line x1="113" y1="233.75" x2="310" y2="233.75" stroke="black" stroke-width="0.5"/>
<path d="M124.7 240.5C125.44 240.5 125.96 240.68 126.26 241.04C126.57 241.39 126.725 241.935 126.725 242.675V243.35C126.725 243.97 126.615 244.445 126.395 244.775C126.175 245.105 125.785 245.315 125.225 245.405C126.365 245.565 126.935 246.315 126.935 247.655V248.585C126.935 250.195 126.195 251 124.715 251H122.6V240.5H124.7ZM124.295 245.27C124.805 245.27 125.21 245.22 125.51 245.12C125.81 245.01 126.03 244.82 126.17 244.55C126.32 244.28 126.395 243.895 126.395 243.395V242.69C126.395 242.04 126.27 241.565 126.02 241.265C125.77 240.965 125.33 240.815 124.7 240.815H122.93V245.27H124.295ZM124.715 250.685C125.385 250.685 125.865 250.51 126.155 250.16C126.455 249.8 126.605 249.275 126.605 248.585V247.64C126.605 246.9 126.43 246.37 126.08 246.05C125.73 245.73 125.185 245.57 124.445 245.57H122.93V250.685H124.715ZM135.683 240.5H136.013V250.685H139.538V251H135.683V240.5ZM148.238 243.08C148.238 242.21 148.423 241.55 148.793 241.1C149.173 240.65 149.728 240.425 150.458 240.425C151.198 240.425 151.758 240.65 152.138 241.1C152.518 241.55 152.708 242.21 152.708 243.08V248.42C152.708 249.29 152.518 249.95 152.138 250.4C151.758 250.85 151.198 251.075 150.458 251.075C149.728 251.075 149.173 250.85 148.793 250.4C148.423 249.95 148.238 249.29 148.238 248.42V243.08ZM148.568 248.435C148.568 249.205 148.728 249.79 149.048 250.19C149.368 250.58 149.838 250.775 150.458 250.775C151.088 250.775 151.563 250.58 151.883 250.19C152.213 249.79 152.378 249.205 152.378 248.435V243.065C152.378 242.295 152.213 241.715 151.883 241.325C151.563 240.925 151.088 240.725 150.458 240.725C149.838 240.725 149.368 240.925 149.048 241.325C148.728 241.715 148.568 242.295 148.568 243.065V248.435ZM164.363 250.97L161.768 240.995V251H161.468V240.5H161.978L164.558 250.46L167.138 240.5H167.648V251H167.318V240.995L164.738 250.97H164.363ZM178.6 240.425C179.35 240.425 179.9 240.665 180.25 241.145C180.6 241.625 180.775 242.255 180.775 243.035V243.23H180.445V243.02C180.445 242.34 180.3 241.79 180.01 241.37C179.72 240.94 179.255 240.725 178.615 240.725C177.965 240.725 177.495 240.935 177.205 241.355C176.915 241.775 176.77 242.325 176.77 243.005C176.77 243.415 176.855 243.775 177.025 244.085C177.205 244.395 177.425 244.66 177.685 244.88C177.955 245.1 178.305 245.355 178.735 245.645C179.185 245.945 179.545 246.21 179.815 246.44C180.095 246.67 180.325 246.955 180.505 247.295C180.695 247.625 180.79 248.015 180.79 248.465C180.79 249.255 180.61 249.89 180.25 250.37C179.9 250.84 179.345 251.075 178.585 251.075C177.835 251.075 177.28 250.84 176.92 250.37C176.57 249.89 176.395 249.255 176.395 248.465V247.955H176.71V248.48C176.71 249.17 176.86 249.725 177.16 250.145C177.46 250.555 177.935 250.76 178.585 250.76C179.235 250.76 179.71 250.555 180.01 250.145C180.31 249.725 180.46 249.17 180.46 248.48C180.46 248.07 180.37 247.715 180.19 247.415C180.02 247.115 179.805 246.86 179.545 246.65C179.295 246.43 178.95 246.175 178.51 245.885C178.05 245.575 177.685 245.305 177.415 245.075C177.145 244.845 176.915 244.56 176.725 244.22C176.535 243.88 176.44 243.48 176.44 243.02C176.44 242.22 176.615 241.59 176.965 241.13C177.325 240.67 177.87 240.435 178.6 240.425ZM191.563 240.815H189.268V240.5H194.188V240.815H191.893V251H191.563V240.815ZM206.143 245.825H203.053V250.685H206.728V251H202.723V240.5H206.728V240.815H203.053V245.525H206.143V245.825ZM217.554 240.5C218.994 240.5 219.714 241.285 219.714 242.855V243.8C219.714 244.45 219.579 244.955 219.309 245.315C219.039 245.675 218.619 245.905 218.049 246.005C219.159 246.175 219.714 246.875 219.714 248.105V249.755C219.714 250.325 219.809 250.74 219.999 251H219.639C219.469 250.73 219.384 250.315 219.384 249.755V248.105C219.384 247.375 219.189 246.87 218.799 246.59C218.409 246.3 217.839 246.155 217.089 246.155H215.799V251H215.469V240.5H217.554ZM217.089 245.84C217.869 245.84 218.444 245.7 218.814 245.42C219.194 245.14 219.384 244.615 219.384 243.845V242.885C219.384 242.215 219.239 241.705 218.949 241.355C218.659 240.995 218.189 240.815 217.539 240.815H215.799V245.84H217.089ZM229.072 251H228.742V240.5H229.072V245.6H232.867V240.5H233.197V251H232.867V245.9H229.072V251ZM242.226 251H241.926L244.461 240.485H244.926L247.521 251H247.191L246.576 248.525H242.841L242.226 251ZM246.516 248.225L244.686 240.875L242.901 248.225H246.516ZM256.255 251V240.5H256.72L260.41 250.325V240.5H260.725V251H260.32L256.57 240.98V251H256.255ZM271.689 240.5C272.459 240.5 273.029 240.74 273.399 241.22C273.779 241.7 273.969 242.335 273.969 243.125V248.39C273.969 249.18 273.779 249.815 273.399 250.295C273.029 250.765 272.464 251 271.704 251H269.499V240.5H271.689ZM271.689 250.685C272.359 250.685 272.849 250.48 273.159 250.07C273.479 249.66 273.639 249.105 273.639 248.405V243.11C273.639 242.41 273.479 241.855 273.159 241.445C272.849 241.025 272.359 240.815 271.689 240.815H269.829V250.685H271.689ZM286.134 245.825H283.044V250.685H286.719V251H282.714V240.5H286.719V240.815H283.044V245.525H286.134V245.825ZM295.46 240.5H295.79V250.685H299.315V251H295.46V240.5Z" fill="black"/>
</svg>
